<svg width="30.000000" height="30.000000" viewBox="0 0 30 30" fill="none" xmlns="http://www.w3.org/2000/svg" xmlns:xlink="http://www.w3.org/1999/xlink">
	<desc>
			Created with Pixso.
	</desc>
	<defs>
		<clipPath id="clip177_2242">
			<rect id="icons8_facebook_messenger 1" rx="0.000000" width="29.000000" height="29.000000" transform="translate(0.500000 0.500000)" fill="white" fill-opacity="0"/>
		</clipPath>
		<linearGradient x1="30.076933" y1="3.000000" x2="3.000078" y2="28.011232" id="paint_linear_177_2243_0" gradientUnits="userSpaceOnUse">
			<stop offset="0.250000" stop-color="#3B768F"/>
			<stop offset="0.536458" stop-color="#3EC6FF"/>
			<stop offset="0.817708" stop-color="#3B768F"/>
		</linearGradient>
	</defs>
	<rect id="icons8_facebook_messenger 1" rx="0.000000" width="29.000000" height="29.000000" transform="translate(0.500000 0.500000)" fill="#FFFFFF" fill-opacity="0"/>
	<g clip-path="url(#clip177_2242)">
		<path id="Vector" d="M15 3C8.37 3 3 8.14 3 14.5C3 17.9 4.55 20.94 7 23.05L7 28L11.83 25.58C12.84 25.84 13.9 26 15 26C21.62 26 27 20.85 27 14.5C27 8.14 21.62 3 15 3ZM13.86 11.35L16.81 14.31L22.08 11.35L16.13 17.8L13.25 14.7L7.84 17.73L13.86 11.35Z" fill="url(#paint_linear_177_2243_0)" fill-opacity="1.000000" fill-rule="nonzero"/>
	</g>
</svg>
