<svg width="26.000000" height="26.000000" viewBox="0 0 26 26" fill="none" xmlns="http://www.w3.org/2000/svg" xmlns:xlink="http://www.w3.org/1999/xlink">
	<desc>
			Created with Pixso.
	</desc>
	<defs>
		<clipPath id="clip177_2244">
			<rect id="icons8_youtube_1 1" rx="0.000000" width="25.000000" height="25.000000" transform="translate(0.500000 0.500000)" fill="white" fill-opacity="0"/>
		</clipPath>
		<linearGradient x1="26.742998" y1="0.031256" x2="2.062578" y2="25.856489" id="paint_linear_177_2245_0" gradientUnits="userSpaceOnUse">
			<stop offset="0.250000" stop-color="#3B768F"/>
			<stop offset="0.536458" stop-color="#3EC6FF"/>
			<stop offset="0.817708" stop-color="#3B768F"/>
		</linearGradient>
	</defs>
	<rect id="icons8_youtube_1 1" rx="0.000000" width="25.000000" height="25.000000" transform="translate(0.500000 0.500000)" fill="#FFFFFF" fill-opacity="0"/>
	<g clip-path="url(#clip177_2244)">
		<path id="Vector" d="M6.31 0.03L8.09 5.87L8.09 9.68L9.59 9.68L9.59 5.68L11.31 0.03L9.81 0.03L8.87 3.87L8.78 3.87L7.81 0.03L6.31 0.03ZM13.21 2.37C12.61 2.37 12.13 2.54 11.78 2.87C11.42 3.19 11.25 3.63 11.25 4.18L11.25 7.87C11.25 8.48 11.43 8.98 11.78 9.34C12.13 9.7 12.57 9.87 13.15 9.87C13.75 9.87 14.25 9.69 14.59 9.34C14.93 8.99 15.09 8.51 15.09 7.9L15.09 4.21C15.09 3.67 14.91 3.25 14.56 2.9C14.21 2.55 13.76 2.37 13.21 2.37ZM16.21 2.56L16.21 8.53C16.21 8.95 16.31 9.25 16.46 9.46C16.62 9.67 16.85 9.78 17.15 9.78C17.4 9.78 17.64 9.71 17.9 9.56C18.17 9.41 18.44 9.19 18.68 8.9L18.68 9.68L20 9.68L20 2.56L18.68 2.56L18.68 7.96C18.56 8.12 18.42 8.24 18.28 8.34C18.13 8.44 18 8.5 17.9 8.5C17.78 8.5 17.67 8.48 17.62 8.4C17.56 8.33 17.56 8.19 17.56 8.03L17.56 2.56L16.21 2.56ZM13.15 3.62C13.33 3.62 13.48 3.65 13.59 3.75C13.7 3.84 13.75 3.97 13.75 4.12L13.75 8.03C13.75 8.22 13.69 8.36 13.59 8.46C13.48 8.57 13.33 8.62 13.15 8.62C12.98 8.62 12.84 8.57 12.75 8.46C12.65 8.36 12.62 8.22 12.62 8.03L12.62 4.12C12.62 3.97 12.67 3.84 12.78 3.75C12.88 3.65 12.99 3.62 13.15 3.62ZM13 11.15C10.4 11.15 7.86 11.17 5.37 11.28C3.63 11.28 2.21 12.68 2.21 14.4C2.11 15.76 2.05 17.13 2.06 18.5C2.05 19.86 2.11 21.23 2.21 22.59C2.21 24.31 3.63 25.71 5.37 25.71C7.86 25.82 10.4 25.84 13 25.84C15.59 25.85 18.14 25.82 20.62 25.71C22.36 25.71 23.78 24.31 23.78 22.59C23.88 21.23 23.94 19.86 23.93 18.5C23.94 17.13 23.88 15.76 23.78 14.4C23.78 12.68 22.36 11.28 20.62 11.28C18.14 11.17 15.59 11.15 13 11.15ZM3.75 13.37L8.34 13.37C8.42 13.37 8.5 13.44 8.5 13.53L8.5 14.93C8.5 15.01 8.42 15.09 8.34 15.09L6.93 15.09L6.93 23.18C6.93 23.26 6.89 23.34 6.81 23.34L5.31 23.34C5.23 23.34 5.15 23.26 5.15 23.18L5.15 15.09L3.75 15.09C3.66 15.09 3.62 15.01 3.62 14.93L3.62 13.53C3.62 13.44 3.66 13.37 3.75 13.37ZM13.4 13.37L14.75 13.37C14.83 13.37 14.9 13.44 14.9 13.53L14.9 16.25C15.01 16.14 15.13 16.06 15.25 16C15.47 15.87 15.7 15.81 15.93 15.81C16.4 15.81 16.75 16 17 16.34C17.23 16.67 17.37 17.14 17.37 17.75L17.37 21.71C17.37 22.25 17.26 22.67 17.03 22.96C16.79 23.27 16.43 23.43 16 23.43C15.72 23.43 15.47 23.36 15.25 23.25C15.12 23.18 15.01 23.12 14.9 23.03L14.9 23.18C14.9 23.26 14.83 23.34 14.75 23.34L13.4 23.34C13.32 23.34 13.25 23.26 13.25 23.18L13.25 13.53C13.25 13.44 13.32 13.37 13.4 13.37ZM20.21 15.71C20.86 15.71 21.39 15.92 21.75 16.31C22.1 16.7 22.28 17.25 22.28 17.96L22.28 19.81C22.28 19.89 22.2 19.93 22.12 19.93L19.75 19.93L19.75 21.15C19.75 21.59 19.79 21.76 19.84 21.84C19.88 21.9 19.94 22 20.15 22C20.32 22 20.44 21.95 20.5 21.87C20.52 21.83 20.59 21.67 20.59 21.15L20.59 20.65C20.59 20.57 20.66 20.5 20.75 20.5L22.12 20.5C22.2 20.5 22.28 20.57 22.28 20.65L22.28 21.18C22.28 21.95 22.07 22.54 21.71 22.93C21.36 23.33 20.82 23.53 20.12 23.53C19.48 23.53 18.99 23.33 18.62 22.9C18.26 22.48 18.06 21.91 18.06 21.18L18.06 17.96C18.06 17.31 18.25 16.79 18.65 16.37C19.05 15.95 19.58 15.71 20.21 15.71ZM8.34 15.9L9.65 15.9C9.73 15.9 9.81 15.98 9.81 16.06L9.81 21.53C9.81 21.71 9.82 21.78 9.84 21.81C9.85 21.82 9.88 21.87 10 21.87C10.03 21.87 10.12 21.85 10.28 21.75C10.41 21.66 10.52 21.55 10.62 21.43L10.62 16.06C10.62 15.98 10.69 15.9 10.78 15.9L12.12 15.9C12.2 15.9 12.25 15.98 12.25 16.06L12.25 23.18C12.25 23.26 12.2 23.34 12.12 23.34L10.78 23.34C10.69 23.34 10.62 23.26 10.62 23.18L10.62 22.78C10.44 22.95 10.27 23.08 10.09 23.18C9.8 23.35 9.53 23.43 9.25 23.43C8.89 23.43 8.62 23.31 8.43 23.06C8.26 22.82 8.18 22.48 8.18 22.03L8.18 16.06C8.18 15.98 8.26 15.9 8.34 15.9ZM15.25 17.25C15.19 17.25 15.14 17.28 15.09 17.31C15.03 17.34 14.96 17.4 14.9 17.46L14.9 21.78C14.98 21.86 15.05 21.93 15.12 21.96C15.2 22 15.28 22.03 15.37 22.03C15.54 22.03 15.6 21.96 15.62 21.93C15.66 21.88 15.68 21.76 15.68 21.53L15.68 17.84C15.68 17.64 15.66 17.47 15.59 17.37C15.51 17.27 15.4 17.22 15.25 17.25ZM20.18 17.28C20.02 17.28 19.91 17.31 19.84 17.4C19.79 17.47 19.75 17.63 19.75 17.96L19.75 18.53L20.59 18.53L20.59 17.96C20.59 17.64 20.55 17.48 20.5 17.4C20.43 17.32 20.33 17.28 20.18 17.28Z" fill="url(#paint_linear_177_2245_0)" fill-opacity="1.000000" fill-rule="nonzero"/>
	</g>
</svg>
